<?xml version="1.0" encoding="UTF-8"?>
<svg id="Layer_2" data-name="Layer 2" xmlns="http://www.w3.org/2000/svg" viewBox="0 0 285.19 430.2">
  <defs>
    <style>
      .cls-1 {
        fill: #f7f7f7;
      }
    </style>
  </defs>
  <g id="Layer_1-2" data-name="Layer 1">
    <g>
      <polygon class="cls-1" points="138.91 153.48 4.99 206.94 138.91 0 138.91 153.48"/>
      <path class="cls-1" d="M148.83,0l131.49,203.45c1.47,7.01-9.04,1.22-12.35-.06-40.11-15.53-78.26-35.94-119.14-49.91V0Z"/>
      <path class="cls-1" d="M148.83,165.1c2.76-.44,4.97.32,7.53,1.07,31.66,9.27,69.72,31.15,98.47,45.38,3.04,1.5,30.41,10.54,27.92,13.98l-133.92,69.79v-130.22Z"/>
      <path class="cls-1" d="M138.91,165.1v130.22L4.99,225.53c-2.69-3.31,25.11-12.59,27.92-13.98,28.75-14.23,66.82-36.11,98.47-45.38,2.56-.75,4.78-1.51,7.53-1.07Z"/>
      <path class="cls-1" d="M138.91,323.23v106.97L0,249.98c4.82-1.92,12.29,3.26,16.57,5.42,41.61,20.98,79.93,48.09,122.35,67.83Z"/>
      <path class="cls-1" d="M148.83,430.2v-106.97c46.68-22.35,88.98-52.28,136.36-73.28l-136.36,180.24Z"/>
    </g>
  </g>
</svg>